<mxfile host="app.diagrams.net" modified="2023-06-13T21:43:58.338Z" agent="Mozilla/5.0 (X11; Linux x86_64) AppleWebKit/537.36 (KHTML, like Gecko) Chrome/112.0.0.0 Safari/537.36" etag="Oxp9PEGNu39dUdsDGRN-" version="21.2.9" type="github">
  <diagram id="C5RBs43oDa-KdzZeNtuy" name="Page-1">
    <mxGraphModel dx="1434" dy="802" grid="1" gridSize="10" guides="1" tooltips="1" connect="1" arrows="1" fold="1" page="1" pageScale="1" pageWidth="827" pageHeight="1169" math="0" shadow="0">
      <root>
        <mxCell id="WIyWlLk6GJQsqaUBKTNV-0" />
        <mxCell id="WIyWlLk6GJQsqaUBKTNV-1" parent="WIyWlLk6GJQsqaUBKTNV-0" />
        <mxCell id="i0tU6bbV2KzVuxpiujoT-5" style="edgeStyle=orthogonalEdgeStyle;rounded=0;orthogonalLoop=1;jettySize=auto;html=1;entryX=0.5;entryY=0;entryDx=0;entryDy=0;" edge="1" parent="WIyWlLk6GJQsqaUBKTNV-1" source="i0tU6bbV2KzVuxpiujoT-1" target="i0tU6bbV2KzVuxpiujoT-2">
          <mxGeometry relative="1" as="geometry" />
        </mxCell>
        <mxCell id="i0tU6bbV2KzVuxpiujoT-1" value="Inicio" style="strokeWidth=2;html=1;shape=mxgraph.flowchart.start_2;whiteSpace=wrap;" vertex="1" parent="WIyWlLk6GJQsqaUBKTNV-1">
          <mxGeometry x="240" y="60" width="50" height="50" as="geometry" />
        </mxCell>
        <mxCell id="i0tU6bbV2KzVuxpiujoT-7" style="edgeStyle=orthogonalEdgeStyle;rounded=0;orthogonalLoop=1;jettySize=auto;html=1;entryX=0.5;entryY=0;entryDx=0;entryDy=0;entryPerimeter=0;" edge="1" parent="WIyWlLk6GJQsqaUBKTNV-1" source="i0tU6bbV2KzVuxpiujoT-2" target="i0tU6bbV2KzVuxpiujoT-6">
          <mxGeometry relative="1" as="geometry" />
        </mxCell>
        <mxCell id="i0tU6bbV2KzVuxpiujoT-2" value="&lt;br&gt;nMisterioso" style="html=1;strokeWidth=2;shape=manualInput;whiteSpace=wrap;rounded=1;size=26;arcSize=11;" vertex="1" parent="WIyWlLk6GJQsqaUBKTNV-1">
          <mxGeometry x="215" y="140" width="100" height="60" as="geometry" />
        </mxCell>
        <mxCell id="i0tU6bbV2KzVuxpiujoT-93" style="edgeStyle=orthogonalEdgeStyle;rounded=0;orthogonalLoop=1;jettySize=auto;html=1;entryX=0.5;entryY=0;entryDx=0;entryDy=0;entryPerimeter=0;" edge="1" parent="WIyWlLk6GJQsqaUBKTNV-1" source="i0tU6bbV2KzVuxpiujoT-6" target="i0tU6bbV2KzVuxpiujoT-42">
          <mxGeometry relative="1" as="geometry">
            <Array as="points">
              <mxPoint x="600" y="265" />
            </Array>
          </mxGeometry>
        </mxCell>
        <mxCell id="i0tU6bbV2KzVuxpiujoT-94" style="edgeStyle=orthogonalEdgeStyle;rounded=0;orthogonalLoop=1;jettySize=auto;html=1;entryX=0.5;entryY=0;entryDx=0;entryDy=0;entryPerimeter=0;exitX=0;exitY=0.5;exitDx=0;exitDy=0;exitPerimeter=0;" edge="1" parent="WIyWlLk6GJQsqaUBKTNV-1" source="i0tU6bbV2KzVuxpiujoT-6" target="i0tU6bbV2KzVuxpiujoT-9">
          <mxGeometry relative="1" as="geometry" />
        </mxCell>
        <mxCell id="i0tU6bbV2KzVuxpiujoT-6" value="nMisterioso &lt;br&gt;!=&lt;br&gt;0" style="strokeWidth=2;html=1;shape=mxgraph.flowchart.decision;whiteSpace=wrap;" vertex="1" parent="WIyWlLk6GJQsqaUBKTNV-1">
          <mxGeometry x="196.25" y="230" width="137.5" height="70" as="geometry" />
        </mxCell>
        <mxCell id="i0tU6bbV2KzVuxpiujoT-8" value="Fim" style="strokeWidth=2;html=1;shape=mxgraph.flowchart.start_2;whiteSpace=wrap;" vertex="1" parent="WIyWlLk6GJQsqaUBKTNV-1">
          <mxGeometry x="311" y="1170" width="53" height="50" as="geometry" />
        </mxCell>
        <mxCell id="i0tU6bbV2KzVuxpiujoT-12" style="edgeStyle=orthogonalEdgeStyle;rounded=0;orthogonalLoop=1;jettySize=auto;html=1;entryX=0;entryY=0.5;entryDx=0;entryDy=0;entryPerimeter=0;exitX=0.5;exitY=1;exitDx=0;exitDy=0;exitPerimeter=0;" edge="1" parent="WIyWlLk6GJQsqaUBKTNV-1" source="i0tU6bbV2KzVuxpiujoT-9" target="i0tU6bbV2KzVuxpiujoT-10">
          <mxGeometry relative="1" as="geometry" />
        </mxCell>
        <mxCell id="i0tU6bbV2KzVuxpiujoT-9" value="O número &lt;br&gt;misterioso não pode ser zero. Execute novamente" style="strokeWidth=2;html=1;shape=mxgraph.flowchart.display;whiteSpace=wrap;" vertex="1" parent="WIyWlLk6GJQsqaUBKTNV-1">
          <mxGeometry x="40" y="400" width="170" height="70" as="geometry" />
        </mxCell>
        <mxCell id="i0tU6bbV2KzVuxpiujoT-13" style="edgeStyle=orthogonalEdgeStyle;rounded=0;orthogonalLoop=1;jettySize=auto;html=1;entryX=0.5;entryY=0;entryDx=0;entryDy=0;entryPerimeter=0;" edge="1" parent="WIyWlLk6GJQsqaUBKTNV-1" source="i0tU6bbV2KzVuxpiujoT-10">
          <mxGeometry relative="1" as="geometry">
            <mxPoint x="336.5" y="1170" as="targetPoint" />
          </mxGeometry>
        </mxCell>
        <mxCell id="i0tU6bbV2KzVuxpiujoT-47" style="edgeStyle=orthogonalEdgeStyle;rounded=0;orthogonalLoop=1;jettySize=auto;html=1;exitX=1;exitY=0.5;exitDx=0;exitDy=0;exitPerimeter=0;endArrow=none;endFill=0;startArrow=classic;startFill=1;entryX=0.5;entryY=0;entryDx=0;entryDy=0;entryPerimeter=0;" edge="1" parent="WIyWlLk6GJQsqaUBKTNV-1" source="i0tU6bbV2KzVuxpiujoT-10" target="i0tU6bbV2KzVuxpiujoT-34">
          <mxGeometry relative="1" as="geometry">
            <mxPoint x="573.12" y="1060" as="targetPoint" />
          </mxGeometry>
        </mxCell>
        <mxCell id="i0tU6bbV2KzVuxpiujoT-10" value="" style="strokeWidth=2;html=1;shape=mxgraph.flowchart.start_2;whiteSpace=wrap;" vertex="1" parent="WIyWlLk6GJQsqaUBKTNV-1">
          <mxGeometry x="310" y="1080" width="54" height="50" as="geometry" />
        </mxCell>
        <mxCell id="i0tU6bbV2KzVuxpiujoT-87" style="edgeStyle=orthogonalEdgeStyle;rounded=0;orthogonalLoop=1;jettySize=auto;html=1;" edge="1" parent="WIyWlLk6GJQsqaUBKTNV-1" source="i0tU6bbV2KzVuxpiujoT-14" target="i0tU6bbV2KzVuxpiujoT-73">
          <mxGeometry relative="1" as="geometry" />
        </mxCell>
        <mxCell id="i0tU6bbV2KzVuxpiujoT-14" value="valor" style="html=1;strokeWidth=2;shape=manualInput;whiteSpace=wrap;rounded=1;size=26;arcSize=11;" vertex="1" parent="WIyWlLk6GJQsqaUBKTNV-1">
          <mxGeometry x="730" y="330" width="99" height="50" as="geometry" />
        </mxCell>
        <mxCell id="i0tU6bbV2KzVuxpiujoT-22" style="edgeStyle=orthogonalEdgeStyle;rounded=0;orthogonalLoop=1;jettySize=auto;html=1;" edge="1" parent="WIyWlLk6GJQsqaUBKTNV-1" source="i0tU6bbV2KzVuxpiujoT-18">
          <mxGeometry relative="1" as="geometry">
            <mxPoint x="776.25" y="695" as="targetPoint" />
            <mxPoint x="743.75" y="640" as="sourcePoint" />
          </mxGeometry>
        </mxCell>
        <mxCell id="i0tU6bbV2KzVuxpiujoT-25" style="edgeStyle=orthogonalEdgeStyle;rounded=0;orthogonalLoop=1;jettySize=auto;html=1;exitX=0;exitY=0.5;exitDx=0;exitDy=0;exitPerimeter=0;" edge="1" parent="WIyWlLk6GJQsqaUBKTNV-1" source="i0tU6bbV2KzVuxpiujoT-18">
          <mxGeometry relative="1" as="geometry">
            <mxPoint x="506.25" y="705" as="targetPoint" />
            <mxPoint x="536.25" y="650" as="sourcePoint" />
          </mxGeometry>
        </mxCell>
        <mxCell id="i0tU6bbV2KzVuxpiujoT-18" value="valor == nMisterioso" style="strokeWidth=2;html=1;shape=mxgraph.flowchart.decision;whiteSpace=wrap;" vertex="1" parent="WIyWlLk6GJQsqaUBKTNV-1">
          <mxGeometry x="536.25" y="620" width="137.5" height="70" as="geometry" />
        </mxCell>
        <mxCell id="i0tU6bbV2KzVuxpiujoT-97" style="edgeStyle=orthogonalEdgeStyle;rounded=0;orthogonalLoop=1;jettySize=auto;html=1;" edge="1" parent="WIyWlLk6GJQsqaUBKTNV-1" source="i0tU6bbV2KzVuxpiujoT-21" target="i0tU6bbV2KzVuxpiujoT-55">
          <mxGeometry relative="1" as="geometry" />
        </mxCell>
        <mxCell id="i0tU6bbV2KzVuxpiujoT-21" value="Parabéns! Você acertou!" style="strokeWidth=2;html=1;shape=mxgraph.flowchart.display;whiteSpace=wrap;" vertex="1" parent="WIyWlLk6GJQsqaUBKTNV-1">
          <mxGeometry x="696.25" y="700" width="140" height="70" as="geometry" />
        </mxCell>
        <mxCell id="i0tU6bbV2KzVuxpiujoT-27" style="edgeStyle=orthogonalEdgeStyle;rounded=0;orthogonalLoop=1;jettySize=auto;html=1;exitX=1;exitY=0.5;exitDx=0;exitDy=0;exitPerimeter=0;" edge="1" parent="WIyWlLk6GJQsqaUBKTNV-1" source="i0tU6bbV2KzVuxpiujoT-24" target="i0tU6bbV2KzVuxpiujoT-26">
          <mxGeometry relative="1" as="geometry" />
        </mxCell>
        <mxCell id="i0tU6bbV2KzVuxpiujoT-29" style="edgeStyle=orthogonalEdgeStyle;rounded=0;orthogonalLoop=1;jettySize=auto;html=1;entryX=0.402;entryY=-0.014;entryDx=0;entryDy=0;entryPerimeter=0;exitX=0;exitY=0.5;exitDx=0;exitDy=0;exitPerimeter=0;" edge="1" parent="WIyWlLk6GJQsqaUBKTNV-1" source="i0tU6bbV2KzVuxpiujoT-24" target="i0tU6bbV2KzVuxpiujoT-28">
          <mxGeometry relative="1" as="geometry" />
        </mxCell>
        <mxCell id="i0tU6bbV2KzVuxpiujoT-24" value="nMisterioso &amp;gt; valor" style="strokeWidth=2;html=1;shape=mxgraph.flowchart.decision;whiteSpace=wrap;" vertex="1" parent="WIyWlLk6GJQsqaUBKTNV-1">
          <mxGeometry x="436.25" y="710" width="137.5" height="70" as="geometry" />
        </mxCell>
        <mxCell id="i0tU6bbV2KzVuxpiujoT-31" style="edgeStyle=orthogonalEdgeStyle;rounded=0;orthogonalLoop=1;jettySize=auto;html=1;entryX=1;entryY=0.5;entryDx=0;entryDy=0;entryPerimeter=0;" edge="1" parent="WIyWlLk6GJQsqaUBKTNV-1" source="i0tU6bbV2KzVuxpiujoT-26" target="i0tU6bbV2KzVuxpiujoT-30">
          <mxGeometry relative="1" as="geometry" />
        </mxCell>
        <mxCell id="i0tU6bbV2KzVuxpiujoT-26" value="&amp;nbsp;O número Misterioso é maior" style="strokeWidth=2;html=1;shape=mxgraph.flowchart.display;whiteSpace=wrap;" vertex="1" parent="WIyWlLk6GJQsqaUBKTNV-1">
          <mxGeometry x="526.25" y="825" width="140" height="70" as="geometry" />
        </mxCell>
        <mxCell id="i0tU6bbV2KzVuxpiujoT-32" style="edgeStyle=orthogonalEdgeStyle;rounded=0;orthogonalLoop=1;jettySize=auto;html=1;entryX=0;entryY=0.5;entryDx=0;entryDy=0;entryPerimeter=0;" edge="1" parent="WIyWlLk6GJQsqaUBKTNV-1" source="i0tU6bbV2KzVuxpiujoT-28" target="i0tU6bbV2KzVuxpiujoT-30">
          <mxGeometry relative="1" as="geometry" />
        </mxCell>
        <mxCell id="i0tU6bbV2KzVuxpiujoT-28" value="&amp;nbsp;O número Misterioso é menor" style="strokeWidth=2;html=1;shape=mxgraph.flowchart.display;whiteSpace=wrap;" vertex="1" parent="WIyWlLk6GJQsqaUBKTNV-1">
          <mxGeometry x="350" y="825" width="140" height="70" as="geometry" />
        </mxCell>
        <mxCell id="i0tU6bbV2KzVuxpiujoT-51" style="edgeStyle=orthogonalEdgeStyle;rounded=0;orthogonalLoop=1;jettySize=auto;html=1;entryX=0.5;entryY=0.16;entryDx=0;entryDy=0;entryPerimeter=0;" edge="1" parent="WIyWlLk6GJQsqaUBKTNV-1" source="i0tU6bbV2KzVuxpiujoT-30">
          <mxGeometry relative="1" as="geometry">
            <mxPoint x="524" y="1018" as="targetPoint" />
          </mxGeometry>
        </mxCell>
        <mxCell id="i0tU6bbV2KzVuxpiujoT-30" value="" style="strokeWidth=2;html=1;shape=mxgraph.flowchart.start_2;whiteSpace=wrap;" vertex="1" parent="WIyWlLk6GJQsqaUBKTNV-1">
          <mxGeometry x="489" y="930" width="50" height="45" as="geometry" />
        </mxCell>
        <mxCell id="i0tU6bbV2KzVuxpiujoT-37" value="" style="group" vertex="1" connectable="0" parent="WIyWlLk6GJQsqaUBKTNV-1">
          <mxGeometry x="439" y="1020" width="150" height="60" as="geometry" />
        </mxCell>
        <mxCell id="i0tU6bbV2KzVuxpiujoT-34" value="" style="strokeWidth=2;html=1;shape=mxgraph.flowchart.loop_limit;whiteSpace=wrap;rotation=-180;" vertex="1" parent="i0tU6bbV2KzVuxpiujoT-37">
          <mxGeometry width="150" height="60" as="geometry" />
        </mxCell>
        <mxCell id="i0tU6bbV2KzVuxpiujoT-36" value="valor == 0" style="text;strokeColor=none;align=center;fillColor=none;html=1;verticalAlign=middle;whiteSpace=wrap;rounded=0;" vertex="1" parent="i0tU6bbV2KzVuxpiujoT-37">
          <mxGeometry x="8.82680672268907" y="15" width="141.1764705882353" height="30" as="geometry" />
        </mxCell>
        <mxCell id="i0tU6bbV2KzVuxpiujoT-95" style="edgeStyle=orthogonalEdgeStyle;rounded=0;orthogonalLoop=1;jettySize=auto;html=1;entryX=0.5;entryY=0;entryDx=0;entryDy=0;" edge="1" parent="WIyWlLk6GJQsqaUBKTNV-1" source="i0tU6bbV2KzVuxpiujoT-42" target="i0tU6bbV2KzVuxpiujoT-14">
          <mxGeometry relative="1" as="geometry" />
        </mxCell>
        <mxCell id="i0tU6bbV2KzVuxpiujoT-42" value="Repita" style="strokeWidth=2;html=1;shape=mxgraph.flowchart.loop_limit;whiteSpace=wrap;" vertex="1" parent="WIyWlLk6GJQsqaUBKTNV-1">
          <mxGeometry x="550" y="280" width="100" height="50" as="geometry" />
        </mxCell>
        <mxCell id="i0tU6bbV2KzVuxpiujoT-92" style="edgeStyle=orthogonalEdgeStyle;rounded=0;orthogonalLoop=1;jettySize=auto;html=1;entryX=0.5;entryY=0;entryDx=0;entryDy=0;entryPerimeter=0;" edge="1" parent="WIyWlLk6GJQsqaUBKTNV-1" source="i0tU6bbV2KzVuxpiujoT-55" target="i0tU6bbV2KzVuxpiujoT-89">
          <mxGeometry relative="1" as="geometry" />
        </mxCell>
        <mxCell id="i0tU6bbV2KzVuxpiujoT-55" value="valor = 0" style="rounded=0;whiteSpace=wrap;html=1;" vertex="1" parent="WIyWlLk6GJQsqaUBKTNV-1">
          <mxGeometry x="706.25" y="840" width="120" height="40" as="geometry" />
        </mxCell>
        <mxCell id="i0tU6bbV2KzVuxpiujoT-84" style="edgeStyle=orthogonalEdgeStyle;rounded=0;orthogonalLoop=1;jettySize=auto;html=1;exitX=1;exitY=0.5;exitDx=0;exitDy=0;exitPerimeter=0;" edge="1" parent="WIyWlLk6GJQsqaUBKTNV-1" source="i0tU6bbV2KzVuxpiujoT-73" target="i0tU6bbV2KzVuxpiujoT-75">
          <mxGeometry relative="1" as="geometry" />
        </mxCell>
        <mxCell id="i0tU6bbV2KzVuxpiujoT-85" style="edgeStyle=orthogonalEdgeStyle;rounded=0;orthogonalLoop=1;jettySize=auto;html=1;entryX=0.5;entryY=0;entryDx=0;entryDy=0;entryPerimeter=0;" edge="1" parent="WIyWlLk6GJQsqaUBKTNV-1" source="i0tU6bbV2KzVuxpiujoT-73">
          <mxGeometry relative="1" as="geometry">
            <mxPoint x="604" y="617" as="targetPoint" />
          </mxGeometry>
        </mxCell>
        <mxCell id="i0tU6bbV2KzVuxpiujoT-73" value="valor == 0&amp;nbsp;" style="strokeWidth=2;html=1;shape=mxgraph.flowchart.decision;whiteSpace=wrap;" vertex="1" parent="WIyWlLk6GJQsqaUBKTNV-1">
          <mxGeometry x="710.5899999999999" y="407" width="137.5" height="70" as="geometry" />
        </mxCell>
        <mxCell id="i0tU6bbV2KzVuxpiujoT-83" style="edgeStyle=orthogonalEdgeStyle;rounded=0;orthogonalLoop=1;jettySize=auto;html=1;entryX=1;entryY=0.5;entryDx=0;entryDy=0;entryPerimeter=0;" edge="1" parent="WIyWlLk6GJQsqaUBKTNV-1" source="i0tU6bbV2KzVuxpiujoT-75" target="i0tU6bbV2KzVuxpiujoT-89">
          <mxGeometry relative="1" as="geometry">
            <Array as="points">
              <mxPoint x="920" y="1043" />
            </Array>
          </mxGeometry>
        </mxCell>
        <mxCell id="i0tU6bbV2KzVuxpiujoT-75" value="Tchau" style="strokeWidth=2;html=1;shape=mxgraph.flowchart.display;whiteSpace=wrap;" vertex="1" parent="WIyWlLk6GJQsqaUBKTNV-1">
          <mxGeometry x="828.97" y="482" width="140" height="70" as="geometry" />
        </mxCell>
        <mxCell id="i0tU6bbV2KzVuxpiujoT-91" style="edgeStyle=orthogonalEdgeStyle;rounded=0;orthogonalLoop=1;jettySize=auto;html=1;" edge="1" parent="WIyWlLk6GJQsqaUBKTNV-1" source="i0tU6bbV2KzVuxpiujoT-89" target="i0tU6bbV2KzVuxpiujoT-36">
          <mxGeometry relative="1" as="geometry">
            <Array as="points">
              <mxPoint x="710" y="1050" />
              <mxPoint x="710" y="1050" />
            </Array>
          </mxGeometry>
        </mxCell>
        <mxCell id="i0tU6bbV2KzVuxpiujoT-89" value="" style="strokeWidth=2;html=1;shape=mxgraph.flowchart.start_2;whiteSpace=wrap;" vertex="1" parent="WIyWlLk6GJQsqaUBKTNV-1">
          <mxGeometry x="740" y="1020" width="50" height="45" as="geometry" />
        </mxCell>
      </root>
    </mxGraphModel>
  </diagram>
</mxfile>
